Coordinates
version=1
nRows=17
nColumns=36
inDegrees=yes

Units are S.I. units (second, meters, Newtons, ...)
If the header above contains a line with 'inDegrees', this indicates whether rotational values are in degrees (yes) or radians (no).

endheader
time	pelvis_tilt	pelvis_list	pelvis_rotation	pelvis_tx	pelvis_ty	pelvis_tz	hip_flexion_r	hip_adduction_r	hip_rotation_r	knee_angle_r	knee_angle_r_beta	ankle_angle_r	subtalar_angle_r	mtp_angle_r	hip_flexion_l	hip_adduction_l	hip_rotation_l	knee_angle_l	knee_angle_l_beta	ankle_angle_l	subtalar_angle_l	mtp_angle_l	lumbar_extension	lumbar_bending	lumbar_rotation	arm_flex_r	arm_add_r	arm_rot_r	elbow_flex_r	pro_sup_r	arm_flex_l	arm_add_l	arm_rot_l	elbow_flex_l	pro_sup_l
      4.48333330	      1.43896170	     -2.43156135	     -0.77389985	      1.77964461	      0.99590058	     -0.36019241	     -2.50964260	     -3.32685519	     -7.82487120	      9.18830926	      0.16036625	     24.59277017	      2.78070173	     -7.49999987	     -4.91104645	    -11.83254070	     -6.80148820	      9.22689586	      0.16103971	     20.85111443	      5.19595193	     -7.49999987	     -2.08830120	      3.76688126	      0.53321834	      2.67214806	    -13.02571141	     12.02686872	     13.99168323	    102.13442528	     -0.67857284	    -13.58100771	     29.14421663	     34.69104334	     91.49997300
      4.50000000	      1.53942347	     -2.41559725	     -0.62197237	      1.77981245	      0.99818003	     -0.36064475	     -2.78528634	     -3.34582086	     -7.78975626	      8.99151340	      0.15693151	     24.48749014	      2.65781795	     -7.49999987	     -5.10084472	    -11.75565746	     -6.62626790	      9.04499071	      0.15786487	     20.63466953	      5.10602750	     -7.49999987	     -2.11753483	      3.75484556	      0.52168889	      2.80632680	    -13.02314310	     12.06965224	     13.99276366	    101.43303332	     -1.13363520	    -13.78536732	     29.01388258	     35.66292822	     89.99504616
      4.51666670	      1.52925492	     -2.39294487	     -0.43946691	      1.77954605	      0.99530774	     -0.36042168	     -2.89285818	     -3.39073557	     -8.02607952	      8.87743233	      0.15494042	     24.55074357	      2.89845435	     -7.49999987	     -5.09982625	    -11.69648982	     -6.43395045	      8.95339304	      0.15626619	     20.53751331	      5.06806928	     -7.49999987	     -2.01182687	      3.76233921	      0.55702105	      2.67749451	    -13.21070902	     12.79922488	     14.35632231	    100.69193571	     -1.28837555	    -14.07711690	     29.84083093	     36.17396268	     88.94781055
      4.53333330	      1.58286544	     -2.38242660	     -0.33610436	      1.77972326	      0.99929746	     -0.36056027	     -3.08115243	     -3.40657543	     -8.06619822	      8.71133595	      0.15204149	     24.50403761	      2.96694334	     -7.49999987	     -5.20553791	    -11.64839537	     -6.27575018	      8.81588541	      0.15386623	     20.35022230	      4.96980562	     -7.49999987	     -2.02126852	      3.73516730	      0.88846157	      2.45667657	    -13.46586269	     13.85472719	     14.93037254	    100.17190070	     -1.29352949	    -14.35250956	     30.80723320	     36.71091225	     87.96697560
      4.55000000	      1.59759915	     -2.36696458	     -0.25604612	      1.78276112	      0.99945782	     -0.36355433	     -3.16385923	     -3.45930432	     -8.08396034	      8.68085918	      0.15150957	     24.48569904	      2.95752893	     -7.49999987	     -5.24381988	    -11.58655234	     -6.22841558	      8.77279158	      0.15311410	     20.32966484	      4.99665073	     -7.49999987	     -1.93242555	      3.75233397	      1.03256887	      2.55546999	    -13.51714270	     13.84917571	     14.96552500	    100.16290065	     -1.45660364	    -14.34166282	     30.83278663	     36.71380164	     87.96140703
      4.56666670	      1.73634695	     -2.29772754	     -0.16512936	      1.78281950	      0.99497187	     -0.36371926	     -3.51035746	     -3.57129431	     -8.32521528	      8.42641941	      0.14706876	     24.31437440	      3.12182369	     -7.49999987	     -5.59609369	    -11.42593630	     -5.95607933	      8.41048539	      0.14679066	     20.12550401	      4.85070246	     -7.49999987	     -1.99927218	      3.69014696	      1.17450381	      2.26642941	    -13.87074292	     15.25547104	     15.66921317	     97.31964547	     -2.06692693	    -14.70894019	     31.30651315	     38.14835059	     84.57981015
      4.58333330	      1.81654046	     -2.25999071	     -0.09507326	      1.78259960	      0.99481841	     -0.36359974	     -3.65832415	     -3.63621329	     -8.28973927	      8.39309822	      0.14648720	     24.27363157	      2.90864274	     -7.49999987	     -5.71394923	    -11.34852923	     -5.82233834	      8.37307191	      0.14613767	     20.05451311	      4.80848551	     -7.49999987	     -2.03914748	      3.67454334	      1.42429477	      2.12182051	    -14.03836691	     15.43902279	     16.09924971	     96.18228960	     -2.47779671	    -14.82979536	     31.13794950	     39.02213006	     83.35196449
      4.60000000	      1.83347134	     -2.25341097	     -0.03292719	      1.77906661	      0.99609503	     -0.36026213	     -3.70480514	     -3.64692391	     -8.31378244	      8.36764128	      0.14604289	     24.27211758	      2.90212647	     -7.49999987	     -5.68401121	    -11.34696892	     -5.73461139	      8.38736366	      0.14638711	     20.03887285	      4.85217476	     -7.49999987	     -1.96330769	      3.68883915	      1.61910816	      2.28229365	    -14.04368182	     15.44400879	     16.17114871	     96.16624017	     -2.59985582	    -14.82098843	     31.14184620	     39.07401166	     83.32814611
      4.61666670	      1.82739545	     -2.24123248	      0.01624303	      1.77890558	      0.99979242	     -0.36007288	     -3.77405591	     -3.65054099	     -8.42851582	      8.22930461	      0.14362846	     24.26711723	      3.15884674	     -7.49999987	     -5.66781716	    -11.35571537	     -5.71103941	      8.32150920	      0.14523773	     19.98746051	      5.08518397	     -7.49999987	     -2.09927353	      3.64549559	      1.80453023	      2.18649816	    -14.35888472	     17.11581830	     17.23293472	     92.43388017	     -3.66806030	    -15.25028965	     30.17633478	     41.79831546	     78.83143021
      4.63333330	      1.87166621	     -2.23219260	      0.03706797	      1.77883922	      0.99967365	     -0.36025502	     -3.88436244	     -3.63599907	     -8.36336528	      8.06799002	      0.14081299	     24.06941756	      3.03732394	     -7.49999987	     -5.75066472	    -11.32497403	     -5.46641382	      8.17382193	      0.14266011	     19.65638360	      4.69922048	     -7.49999987	     -2.17331199	      3.63797300	      1.94285174	      2.28050891	    -15.00511355	     22.59404250	     18.16503900	     82.50509208	     -4.19537567	    -15.46201838	     30.40149138	     43.28991198	     70.25021025
      4.65000000	      1.91269862	     -2.26640923	      0.04218936	      1.77883981	      1.00324405	     -0.35956623	     -4.00167482	     -3.56929163	     -8.31772752	      7.89689375	      0.13782680	     23.81788273	      3.00047092	     -7.49999987	     -5.85370633	    -11.35940064	     -5.26765600	      7.99112474	      0.13947144	     19.33833529	      4.46055146	     -7.49999987	     -2.31134292	      3.70962782	      2.34971338	      1.96131935	    -15.23484778	     22.54629468	     19.30058474	     80.06364128	     -4.58177602	    -15.59087905	     29.69065558	     45.02687615	     68.69684072
      4.66666670	      1.86709164	     -2.23468264	      0.05650401	      1.77870726	      1.00695566	     -0.36016995	     -3.99734589	     -3.58701648	     -8.40479852	      7.78609422	      0.13589298	     23.78712294	      3.26560272	     -7.49999987	     -5.85982801	    -11.33909340	     -5.30289731	      7.80776926	      0.13627128	     19.11719101	      4.70378273	     -7.49999987	     -2.28608548	      3.68605049	      2.34580623	      2.21890889	    -15.78820814	     27.37499554	     20.23625196	     72.51404643	     -5.15299820	    -15.69880334	     29.53031486	     46.73022380	     61.89276782
      4.68333330	      1.80724273	     -2.24439624	      0.07802216	      1.77539424	      1.00780074	     -0.36210544	     -3.92323521	     -3.56270589	     -8.39191775	      7.71868620	      0.13471649	     23.56962283	      3.28769091	     -7.49999987	     -5.77195956	    -11.34524486	     -5.13140038	      7.71085535	      0.13457981	     18.87315833	      4.68069076	     -7.49999987	     -2.33373213	      3.77527088	      2.66678248	      2.03559848	    -16.05322032	     28.84319014	     21.16504100	     66.93628827	     -5.45297814	    -15.66678465	     29.34367248	     48.31847145	     58.63490278
      4.70000000	      1.79952453	     -2.22106948	      0.03660288	      1.77541099	      1.00717446	     -0.36162808	     -3.86343753	     -3.59157412	     -8.32418689	      7.71873586	      0.13471735	     23.42617249	      3.27469556	     -7.49999987	     -5.79244682	    -11.30265321	     -5.18897565	      7.53545701	      0.13151854	     18.64204778	      4.70696734	     -7.49999987	     -2.50407485	      3.84324158	      3.09880042	      1.68862067	    -16.33988670	     28.95744097	     22.31946455	     65.81522285	     -5.56785234	    -15.61267594	     28.98092924	     49.75141807	     58.37363610
      4.71666670	      1.78390703	     -2.22762905	      0.02445636	      1.77549252	      1.00623023	     -0.36087798	     -3.80448865	     -3.58483231	     -8.32938909	      7.70741797	      0.13451982	     23.31614732	      3.36624992	     -7.49999987	     -5.74901069	    -11.30413081	     -5.10051687	      7.46730067	      0.13032898	     18.45226044	      4.63360679	     -7.49999987	     -2.59043549	      3.91033756	      3.12272623	      1.92938717	    -16.90760076	     33.93083462	     23.48423325	     56.03770037	     -5.98195668	    -15.72348152	     29.01269865	     51.58804202	     53.34010252
      4.73333330	      1.66600229	     -2.27785346	      0.00097654	      1.77205637	      1.00313015	     -0.35826737	     -3.55083241	     -3.51302556	     -8.30952645	      7.80489838	      0.13622117	     23.20992214	      3.34664346	     -7.49999987	     -5.47902844	    -11.39585294	     -5.02490600	      7.57179050	      0.13215267	     18.43225558	      4.54972439	     -7.49999987	     -2.62232884	      4.00146613	      3.53540754	      1.63125172	    -16.93408324	     34.00334038	     24.15268201	     55.78518664	     -6.11000710	    -15.81380297	     28.88979266	     53.24756552	     53.36290138
      4.75000000	      1.72044271	     -2.29199766	     -0.00422248	      1.77530654	      1.00280049	     -0.35578660	     -3.55784114	     -3.47386530	     -8.31194151	      7.85967830	      0.13717726	     23.16824137	      3.35760914	     -7.49999987	     -5.47933044	    -11.44792949	     -5.02459503	      7.61708589	      0.13294323	     18.33460533	      4.56277586	     -7.49999987	     -2.58613692	      4.07752734	      3.55426885	      1.55405678	    -16.66929996	     34.05308549	     24.27993359	     55.76429414	     -5.98296751	    -15.75324241	     28.84694691	     53.49822878	     53.36297181
